<?xml version="1.0" encoding="UTF-8" standalone="no"?>
<!-- Generator: Inkscape  | Author: L3D -->

<svg
   xmlns:dc="http://purl.org/dc/elements/1.1/"
   xmlns:cc="http://creativecommons.org/ns#"
   xmlns:rdf="http://www.w3.org/1999/02/22-rdf-syntax-ns#"
   xmlns:svg="http://www.w3.org/2000/svg"
   xmlns="http://www.w3.org/2000/svg"
   xmlns:sodipodi="http://sodipodi.sourceforge.net/DTD/sodipodi-0.dtd"
   xmlns:inkscape="http://www.inkscape.org/namespaces/inkscape"
   version="1.1"
   id="Ebene_1"
   x="0px"
   y="0px"
   viewBox="0 0 57.9 69.7"
   style="enable-background:new 0 0 57.9 69.7;"
   xml:space="preserve"
   sodipodi:docname="toolbox-voc.svg"
   inkscape:version="0.92.4 5da689c313, 2019-01-14"><metadata
   id="metadata18"><rdf:RDF><cc:Work
       rdf:about=""><dc:format>image/svg+xml</dc:format><dc:type
         rdf:resource="http://purl.org/dc/dcmitype/StillImage" /><dc:title></dc:title><cc:license
         rdf:resource="MIT License: L3D" /><dc:creator><cc:Agent><dc:title>L3D und C3VOC</dc:title></cc:Agent></dc:creator></cc:Work></rdf:RDF></metadata><defs
   id="defs16"><linearGradient
     gradientTransform="translate(-3.7,-4)"
     id="SVGID_1_-9"
     gradientUnits="userSpaceOnUse"
     x1="29.282301"
     y1="4.0356998"
     x2="29.282301"
     y2="63.5079"><stop
       offset="0"
       style="stop-color:#E64F2D"
       id="stop4-9" /><stop
       offset="0.5"
       style="stop-color:#D74126"
       id="stop6-0" /><stop
       offset="1"
       style="stop-color:#9B160F"
       id="stop8-8" /></linearGradient></defs><sodipodi:namedview
   pagecolor="#ffffff"
   bordercolor="#666666"
   borderopacity="1"
   objecttolerance="10"
   gridtolerance="10"
   guidetolerance="10"
   inkscape:pageopacity="0"
   inkscape:pageshadow="2"
   inkscape:window-width="1916"
   inkscape:window-height="1032"
   id="namedview14"
   showgrid="false"
   inkscape:zoom="13.54376"
   inkscape:cx="2.9638321"
   inkscape:cy="40.96462"
   inkscape:window-x="0"
   inkscape:window-y="22"
   inkscape:window-maximized="0"
   inkscape:current-layer="Ebene_1" />
<style
   type="text/css"
   id="style2">
	.st0{fill:url(#SVGID_1_);}
</style>
<linearGradient
   id="SVGID_1_"
   gradientUnits="userSpaceOnUse"
   x1="29.2823"
   y1="4.0357"
   x2="29.2823"
   y2="63.5079">
	<stop
   offset="0"
   style="stop-color:#E64F2D"
   id="stop4" />
	<stop
   offset="0.5"
   style="stop-color:#D74126"
   id="stop6" />
	<stop
   offset="1"
   style="stop-color:#9B160F"
   id="stop8" />
</linearGradient>
<path
   style="fill:#1a1a1a;stroke-width:3.52250004"
   d="M 28.623226,12.150256 C 16.626911,11.907273 2.1169256,19.002514 7.9919439,32.778016 7.991302,35.277705 7.3373302,46.173871 9.6996675,47.034714 c -0.4475918,0.336752 -0.5449393,-7.268597 0.7157565,-9.23009 0.22544,-0.369863 0.468493,-0.725635 0.634051,-1.1272 0.179651,-0.394118 0.219416,-0.837747 0.112719,-1.257532 -0.08035,-0.232065 -0.199456,-0.448833 -0.35225,-0.641095 -0.1409,-0.197262 -0.306457,-0.387476 -0.436791,-0.591781 -0.342805,-0.527003 -0.4864372,-1.158983 -0.405088,-1.782385 0.087932,-0.625062 0.41974,-1.189895 0.922897,-1.571035 0.456063,-0.324733 1.008358,-0.486078 1.567511,-0.457924 0.18505,0.0052 0.369124,0.02884 0.549511,0.07045 0.723261,0.192326 1.365464,0.612227 1.8317,1.19765 0.581213,0.711546 0.922894,1.609782 1.007436,2.525632 0.08454,0.915851 -0.08454,1.849313 -0.436791,2.698235 -0.634051,1.52172 -1.8317,2.74755 -2.490408,4.255181 -0.535421,1.232873 -0.69041,2.606649 -0.616436,3.952244 0.01053,0.123289 0.02818,0.246576 0.03524,0.373385 1.587709,2.032605 3.542408,3.749538 5.76281,5.061832 -0.13413,-1.115126 -0.201178,-2.2373 -0.200782,-3.360463 0,-0.894717 0.04931,-1.785908 0.133854,-2.666534 -0.549177,-0.358926 -1.019091,-0.826442 -1.380821,-1.373777 -0.623482,-0.986299 -0.739724,-2.236787 -0.486104,-3.381599 0.257141,-1.137767 0.863012,-2.176906 1.585124,-3.092755 1.209619,-1.515039 2.755834,-2.727166 4.515845,-3.540114 -0.04931,-0.07045 -0.105671,-0.140899 -0.1409,-0.197259 -0.643819,-1.048526 -1.027861,-2.235674 -1.120155,-3.462617 -0.09158,-1.232875 0.105672,-2.476318 0.18317,-3.709192 0.05988,-0.863014 0.0634,-1.726025 0.112719,-2.589038 0.05988,-1.003913 0.176127,-2.00078 0.457926,-2.958901 0.105672,-0.35225 0.228963,-0.697454 0.4227,-1.000389 0.231811,-0.359079 0.561941,-0.643969 0.951075,-0.820743 0.38869,-0.165186 0.816938,-0.214129 1.232875,-0.1409 0.35225,0.07749 0.67632,0.253621 0.961643,0.472015 0.288844,0.218395 0.535419,0.486104 0.767904,0.757337 0.662797,0.780414 1.219481,1.645051 1.655575,2.571424 0.575449,-0.08893 1.161144,-0.08893 1.736593,0 0.435913,-0.926474 0.992612,-1.791133 1.655575,-2.571424 0.232485,-0.274754 0.47906,-0.538942 0.764382,-0.757337 0.281652,-0.225841 0.610202,-0.385904 0.961643,-0.468494 0.418941,-0.08595 0.854357,-0.03661 1.243443,0.140901 0.386436,0.178065 0.713963,0.462818 0.944029,0.820742 0.200782,0.302936 0.324071,0.648141 0.4227,0.996868 0.2818,0.958121 0.405087,1.958511 0.464971,2.958901 0.04931,0.859489 0.05283,1.726024 0.11272,2.585515 0.08101,1.232874 0.281799,2.472795 0.18317,3.709192 -0.09188,1.228128 -0.475929,2.416515 -1.120155,3.46614 -0.04931,0.08101 -0.105671,0.15499 -0.162036,0.232485 0.387475,0.443835 0.951075,0.817221 1.430135,0.979254 0.538647,0.174529 1.114686,0.198885 1.666143,0.07045 0.304619,-0.0691 0.594477,-0.191966 0.855968,-0.362817 0.259924,-0.168492 0.477014,-0.39523 0.63405,-0.662232 0.174062,-0.339652 0.277134,-0.711192 0.302934,-1.091974 0.105671,-0.968687 0,-1.947941 -0.08454,-2.923675 -0.05283,-0.627005 -0.09863,-1.268099 0.04227,-1.884537 0.08382,-0.424611 0.292303,-0.8146 0.598826,-1.120155 0.21013,-0.192944 0.463982,-0.331959 0.739725,-0.405088 0.27572,-0.07281 0.563429,-0.08839 0.8454,-0.04579 0.610772,0.08953 1.156203,0.430585 1.504106,0.940508 0.186662,0.292235 0.315786,0.617435 0.380431,0.958119 0.07045,0.341683 0.0951,0.686887 0.11272,1.035616 0.07045,1.208216 0.0634,2.419956 0.02818,3.628174 -0.02818,1.063795 -0.08806,2.148724 -0.510763,3.120936 -0.542465,1.243441 -1.641485,2.173382 -2.818001,2.839134 -0.797714,0.44695 -1.647061,0.794733 -2.529154,1.035615 0.782242,2.561501 1.174115,5.226234 1.162425,7.90449 -0.0022,1.130432 -0.663407,5.508426 -0.802028,6.630329 0.561726,0.122829 3.182716,-1.226775 3.724919,-1.105534 6.797584,1.519993 10.324602,0.348425 7.024646,-19.896601 C 57.474704,17.784103 40.273579,12.030378 28.619715,12.150249 Z"
   id="path836" /><path
   style="fill:url(#SVGID_1_);stroke-width:1;font-variant-east_asian:normal;opacity:1;vector-effect:none;fill-opacity:1;stroke-linecap:butt;stroke-linejoin:miter;stroke-miterlimit:4;stroke-dasharray:none;stroke-dashoffset:0;stroke-opacity:1"
   d="m 22.846326,37.582707 v 2.360075 c 0.621349,0.0088 1.224571,0.210679 1.726025,0.577689 0.383698,0.278417 0.689372,0.650806 0.88767,1.081408 0.190214,0.433268 0.260666,0.91585 0.176124,1.384342 -0.07085,0.415284 -0.250762,0.804288 -0.52133,1.127201 -0.274436,0.321279 -0.622485,0.571439 -1.01448,0.729156 -0.397335,0.16091 -0.82664,0.227235 -1.254009,0.193737 v 5.938936 L 35.199734,44.2825 22.846326,37.589752 Z"
   id="path2" /><path
   class="st0"
   d="M 54.9,18.8 29.3,4 3.7,18.8 v 30 0 l 25.5,14.7 v 0 0 0 0 L 54.8,48.7 v 0 0 -11.9 0 0 l -5.3,-3 5.3,-3 v -0.1 0 -11.9 z m -5.3,21 v 5.8 C 33.105239,59.103251 21.957023,55.493242 9,45.7 V 21.9 c 18.487637,-13.5821549 22.042397,-10.695761 40.6,0 v 5.8 c -6.969435,3.759984 -4.706494,1.758843 -5.3,9.2 z"
   id="path11"
   inkscape:connector-curvature="0"
   style="fill:url(#SVGID_1_)"
   sodipodi:nodetypes="cccccccccccccccccccccccccccccc" />
</svg>
